RBDS014runT45_grf
version=1
nRows=34
nColumns=19
inDegrees=no
endheader
time	ground_force_r_vx	ground_force_r_vy	ground_force_r_vz	ground_force_r_px	ground_force_r_py	ground_force_r_pz	ground_force_r_mx	ground_force_r_my	ground_force_r_mz	ground_force_l_vx	ground_force_l_vy	ground_force_l_vz	ground_force_l_px	ground_force_l_py	ground_force_l_pz	ground_force_l_mx	ground_force_l_my	ground_force_l_mz
      7.49900000	      0.00000000	      0.00000000	      0.00000000	      0.00000000	      0.00000000	      0.00000000	      0.00000000	      0.00000000	      0.00000000	    175.83048915	    423.25588923	    -18.41321510	      1.84255458	      0.00000000	      1.01923806	      0.00000000	     -1.15279090	     -0.00000000
      7.50000000	      0.00000000	      0.00000000	      0.00000000	      0.00000000	      0.00000000	      0.00000000	      0.00000000	      0.00000000	      0.00000000	    171.22100469	    405.14050065	    -18.32890574	      1.84222089	      0.00000000	      1.01924033	      0.00000000	     -1.18859583	     -0.00000000
      7.50100000	      0.00000000	      0.00000000	      0.00000000	      0.00000000	      0.00000000	      0.00000000	      0.00000000	      0.00000000	      0.00000000	    166.43928349	    387.97182240	    -18.08285591	      1.84229110	      0.00000000	      1.01921246	      0.00000000	     -1.20698415	     -0.00000000
      7.50200000	      0.00000000	      0.00000000	      0.00000000	      0.00000000	      0.00000000	      0.00000000	      0.00000000	      0.00000000	      0.00000000	    161.65756229	    370.80314415	    -17.83680607	      1.84236132	      0.00000000	      1.01918458	      0.00000000	     -1.22537247	     -0.00000000
      7.50300000	      0.00000000	      0.00000000	      0.00000000	      0.00000000	      0.00000000	      0.00000000	      0.00000000	      0.00000000	      0.00000000	    156.87584109	    353.63446590	    -17.59075623	      1.84243154	      0.00000000	      1.01915670	      0.00000000	     -1.24376078	     -0.00000000
      7.50400000	      0.00000000	      0.00000000	      0.00000000	      0.00000000	      0.00000000	      0.00000000	      0.00000000	      0.00000000	      0.00000000	    152.04139021	    337.16618927	    -17.25283940	      1.84274689	      0.00000000	      1.01911078	      0.00000000	     -1.25124765	     -0.00000000
      7.50500000	      0.00000000	      0.00000000	      0.00000000	      0.00000000	      0.00000000	      0.00000000	      0.00000000	      0.00000000	      0.00000000	    147.18057448	    321.04811346	    -16.86898907	      1.84318481	      0.00000000	      1.01905582	      0.00000000	     -1.25328380	     -0.00000000
      7.50600000	      0.00000000	      0.00000000	      0.00000000	      0.00000000	      0.00000000	      0.00000000	      0.00000000	      0.00000000	      0.00000000	    142.31975876	    304.93003765	    -16.48513874	      1.84362273	      0.00000000	      1.01900087	      0.00000000	     -1.25531994	     -0.00000000
      7.50700000	      0.00000000	      0.00000000	      0.00000000	      0.00000000	      0.00000000	      0.00000000	      0.00000000	      0.00000000	      0.00000000	    137.46324227	    289.19089298	    -16.06406275	      1.84416778	      0.00000000	      1.01893816	      0.00000000	     -1.25242701	     -0.00000000
      7.50800000	      0.00000000	      0.00000000	      0.00000000	      0.00000000	      0.00000000	      0.00000000	      0.00000000	      0.00000000	      0.00000000	    132.61532423	    274.20961061	    -15.56853546	      1.84492707	      0.00000000	      1.01885995	      0.00000000	     -1.23967595	     -0.00000000
      7.50900000	      0.00000000	      0.00000000	      0.00000000	      0.00000000	      0.00000000	      0.00000000	      0.00000000	      0.00000000	      0.00000000	    127.76740619	    259.22832824	    -15.07300817	      1.84568637	      0.00000000	      1.01878175	      0.00000000	     -1.22692488	     -0.00000000
      7.51000000	      0.00000000	      0.00000000	      0.00000000	      0.00000000	      0.00000000	      0.00000000	      0.00000000	      0.00000000	      0.00000000	    122.91948815	    244.24704587	    -14.57748088	      1.84644566	      0.00000000	      1.01870354	      0.00000000	     -1.21417381	     -0.00000000
      7.51100000	      0.00000000	      0.00000000	      0.00000000	      0.00000000	      0.00000000	      0.00000000	      0.00000000	      0.00000000	      0.00000000	    118.17266365	    230.46971045	    -13.99771293	      1.84747157	      0.00000000	      1.01860651	      0.00000000	     -1.18863853	     -0.00000000
      7.51200000	      0.00000000	      0.00000000	      0.00000000	      0.00000000	      0.00000000	      0.00000000	      0.00000000	      0.00000000	      0.00000000	    113.42583914	    216.69237502	    -13.41794497	      1.84849748	      0.00000000	      1.01850948	      0.00000000	     -1.16310325	     -0.00000000
      7.51300000	      0.00000000	      0.00000000	      0.00000000	      0.00000000	      0.00000000	      0.00000000	      0.00000000	      0.00000000	      0.00000000	    108.67901464	    202.91503960	    -12.83817702	      1.84952339	      0.00000000	      1.01841246	      0.00000000	     -1.13756797	     -0.00000000
      7.51400000	      0.00000000	      0.00000000	      0.00000000	      0.00000000	      0.00000000	      0.00000000	      0.00000000	      0.00000000	      0.00000000	    104.05414330	    189.97176666	    -12.22079100	      1.85068639	      0.00000000	      1.01830612	      0.00000000	     -1.10507888	     -0.00000000
      7.51500000	      0.00000000	      0.00000000	      0.00000000	      0.00000000	      0.00000000	      0.00000000	      0.00000000	      0.00000000	      0.00000000	     99.49024855	    177.44552496	    -11.58459596	      1.85191794	      0.00000000	      1.01819512	      0.00000000	     -1.06911288	     -0.00000000
      7.51600000	      0.00000000	      0.00000000	      0.00000000	      0.00000000	      0.00000000	      0.00000000	      0.00000000	      0.00000000	      0.00000000	     94.92635379	    164.91928326	    -10.94840091	      1.85314950	      0.00000000	      1.01808412	      0.00000000	     -1.03314689	     -0.00000000
      7.51700000	      0.00000000	      0.00000000	      0.00000000	      0.00000000	      0.00000000	      0.00000000	      0.00000000	      0.00000000	      0.00000000	     90.44779826	    152.81892039	    -10.30247069	      1.85442809	      0.00000000	      1.01797015	      0.00000000	     -0.99456888	     -0.00000000
      7.51800000	      0.00000000	      0.00000000	      0.00000000	      0.00000000	      0.00000000	      0.00000000	      0.00000000	      0.00000000	      0.00000000	     86.13992119	    141.57031517	     -9.63707012	      1.85580074	      0.00000000	      1.01785023	      0.00000000	     -0.95076684	     -0.00000000
      7.51900000	      0.00000000	      0.00000000	      0.00000000	      0.00000000	      0.00000000	      0.00000000	      0.00000000	      0.00000000	      0.00000000	     81.83204411	    130.32170996	     -8.97166955	      1.85717340	      0.00000000	      1.01773032	      0.00000000	     -0.90696480	     -0.00000000
      7.52000000	      0.00000000	      0.00000000	      0.00000000	      0.00000000	      0.00000000	      0.00000000	      0.00000000	      0.00000000	      0.00000000	     77.52416704	    119.07310474	     -8.30626898	      1.85854605	      0.00000000	      1.01761040	      0.00000000	     -0.86316276	     -0.00000000
      7.52100000	      0.00000000	      0.00000000	      0.00000000	      0.00000000	      0.00000000	      0.00000000	      0.00000000	      0.00000000	      0.00000000	     73.53452282	    109.10784794	     -7.63732710	      1.85999464	      0.00000000	      1.01748658	      0.00000000	     -0.81423414	     -0.00000000
      7.52200000	      0.00000000	      0.00000000	      0.00000000	      0.00000000	      0.00000000	      0.00000000	      0.00000000	      0.00000000	      0.00000000	     69.54487859	     99.14259114	     -6.96838522	      1.86144323	      0.00000000	      1.01736276	      0.00000000	     -0.76530552	     -0.00000000
      7.52300000	      0.00000000	      0.00000000	      0.00000000	      0.00000000	      0.00000000	      0.00000000	      0.00000000	      0.00000000	      0.00000000	     65.55523437	     89.17733433	     -6.29944333	      1.86289182	      0.00000000	      1.01723894	      0.00000000	     -0.71637690	     -0.00000000
      7.52400000	      0.00000000	      0.00000000	      0.00000000	      0.00000000	      0.00000000	      0.00000000	      0.00000000	      0.00000000	      0.00000000	     61.81079061	     80.05765822	     -5.64360022	      1.86434920	      0.00000000	      1.01711569	      0.00000000	     -0.66582202	     -0.00000000
      7.52500000	      0.00000000	      0.00000000	      0.00000000	      0.00000000	      0.00000000	      0.00000000	      0.00000000	      0.00000000	      0.00000000	     58.18894709	     71.36077246	     -4.99430648	      1.86581098	      0.00000000	      1.01699272	      0.00000000	     -0.61445401	     -0.00000000
      7.52600000	      0.00000000	      0.00000000	      0.00000000	      0.00000000	      0.00000000	      0.00000000	      0.00000000	      0.00000000	      0.00000000	     54.56710356	     62.66388669	     -4.34501275	      1.86727275	      0.00000000	      1.01686976	      0.00000000	     -0.56308601	     -0.00000000
      7.52700000	      0.00000000	      0.00000000	      0.00000000	      0.00000000	      0.00000000	      0.00000000	      0.00000000	      0.00000000	      0.00000000	     46.93728708	     51.17936657	     -3.52093524	      1.68142254	      0.00000000	      0.91510900	      0.00000000	     -0.47595660	     -0.00000000
      7.52800000	      0.00000000	      0.00000000	      0.00000000	      0.00000000	      0.00000000	      0.00000000	      0.00000000	      0.00000000	      0.00000000	     31.29152472	     34.11957771	     -2.34729016	      1.12094836	      0.00000000	      0.61007267	      0.00000000	     -0.31730440	     -0.00000000
      7.52900000	      0.00000000	      0.00000000	      0.00000000	      0.00000000	      0.00000000	      0.00000000	      0.00000000	      0.00000000	      0.00000000	     15.64576236	     17.05978886	     -1.17364508	      0.56047418	      0.00000000	      0.30503633	      0.00000000	     -0.15865220	     -0.00000000
      7.53000000	      0.00000000	      0.00000000	      0.00000000	      0.00000000	      0.00000000	      0.00000000	      0.00000000	      0.00000000	      0.00000000	      0.00000000	      0.00000000	      0.00000000	      0.00000000	      0.00000000	      0.00000000	      0.00000000	      0.00000000	      0.00000000
      7.53100000	      0.00000000	      0.00000000	      0.00000000	      0.00000000	      0.00000000	      0.00000000	      0.00000000	      0.00000000	      0.00000000	      0.00000000	      0.00000000	      0.00000000	      0.00000000	      0.00000000	      0.00000000	      0.00000000	      0.00000000	      0.00000000
      7.53200000	      0.00000000	      0.00000000	      0.00000000	      0.00000000	      0.00000000	      0.00000000	      0.00000000	      0.00000000	      0.00000000	      0.00000000	      0.00000000	      0.00000000	      0.00000000	      0.00000000	      0.00000000	      0.00000000	      0.00000000	      0.00000000
